<mxfile host="app.diagrams.net" modified="2023-03-01T13:23:42.698Z" agent="5.0 (X11; Linux x86_64) AppleWebKit/537.36 (KHTML, like Gecko) Chrome/110.0.0.0 Safari/537.36" etag="rGfFosn8-hLC9LOaTzjl" version="20.8.23" type="github" pages="2">
  <diagram name="Page-1" id="16e2658f-23c8-b752-8be9-c03fbebb8bbe">
    <mxGraphModel dx="615" dy="506" grid="1" gridSize="10" guides="1" tooltips="1" connect="1" arrows="0" fold="1" page="0" pageScale="1" pageWidth="1100" pageHeight="850" background="#FFFFFF" math="0" shadow="0">
      <root>
        <mxCell id="0" />
        <mxCell id="1" parent="0" />
        <mxCell id="Z0wh2rYoc3VQ_gcaiNQV-62" value="" style="group;fillColor=default;" vertex="1" connectable="0" parent="1">
          <mxGeometry x="710" y="350" width="109.005" height="120" as="geometry" />
        </mxCell>
        <mxCell id="Z0wh2rYoc3VQ_gcaiNQV-46" value="" style="endArrow=none;html=1;rounded=0;fontSize=23;" edge="1" parent="Z0wh2rYoc3VQ_gcaiNQV-62">
          <mxGeometry width="50" height="50" relative="1" as="geometry">
            <mxPoint y="18" as="sourcePoint" />
            <mxPoint x="37.71428571428578" y="18" as="targetPoint" />
          </mxGeometry>
        </mxCell>
        <mxCell id="Z0wh2rYoc3VQ_gcaiNQV-38" value="" style="endArrow=none;html=1;rounded=0;" edge="1" parent="Z0wh2rYoc3VQ_gcaiNQV-62">
          <mxGeometry width="50" height="50" relative="1" as="geometry">
            <mxPoint x="37.71428571428578" y="48" as="sourcePoint" />
            <mxPoint x="37.71428571428578" y="72" as="targetPoint" />
            <Array as="points">
              <mxPoint x="74.94505494505495" y="60" />
            </Array>
          </mxGeometry>
        </mxCell>
        <mxCell id="Z0wh2rYoc3VQ_gcaiNQV-39" value="" style="endArrow=none;html=1;rounded=0;" edge="1" parent="Z0wh2rYoc3VQ_gcaiNQV-62">
          <mxGeometry width="50" height="50" relative="1" as="geometry">
            <mxPoint x="37.71428571428578" y="48" as="sourcePoint" />
            <mxPoint x="37.71428571428578" as="targetPoint" />
            <Array as="points">
              <mxPoint x="37.71428571428578" y="20" />
            </Array>
          </mxGeometry>
        </mxCell>
        <mxCell id="Z0wh2rYoc3VQ_gcaiNQV-40" value="" style="endArrow=none;html=1;rounded=0;" edge="1" parent="Z0wh2rYoc3VQ_gcaiNQV-62">
          <mxGeometry width="50" height="50" relative="1" as="geometry">
            <mxPoint x="37.71428571428578" y="120" as="sourcePoint" />
            <mxPoint x="37.71428571428578" y="72" as="targetPoint" />
          </mxGeometry>
        </mxCell>
        <mxCell id="Z0wh2rYoc3VQ_gcaiNQV-41" value="" style="endArrow=none;html=1;rounded=0;" edge="1" parent="Z0wh2rYoc3VQ_gcaiNQV-62">
          <mxGeometry width="50" height="50" relative="1" as="geometry">
            <mxPoint x="37.71428571428578" as="sourcePoint" />
            <mxPoint x="100.57142857142856" y="30" as="targetPoint" />
          </mxGeometry>
        </mxCell>
        <mxCell id="Z0wh2rYoc3VQ_gcaiNQV-42" value="" style="endArrow=none;html=1;rounded=0;movable=1;resizable=1;rotatable=1;deletable=1;editable=1;locked=0;connectable=1;" edge="1" parent="Z0wh2rYoc3VQ_gcaiNQV-62">
          <mxGeometry width="50" height="50" relative="1" as="geometry">
            <mxPoint x="100.57142857142856" y="84" as="sourcePoint" />
            <mxPoint x="37.71428571428578" y="120" as="targetPoint" />
          </mxGeometry>
        </mxCell>
        <mxCell id="Z0wh2rYoc3VQ_gcaiNQV-43" value="" style="endArrow=none;html=1;rounded=0;" edge="1" parent="Z0wh2rYoc3VQ_gcaiNQV-62">
          <mxGeometry width="50" height="50" relative="1" as="geometry">
            <mxPoint x="100.57142857142856" y="84" as="sourcePoint" />
            <mxPoint x="100.57142857142856" y="29.99799999999999" as="targetPoint" />
          </mxGeometry>
        </mxCell>
        <mxCell id="Z0wh2rYoc3VQ_gcaiNQV-45" value="&lt;font style=&quot;font-size: 15px;&quot;&gt;ALU&lt;/font&gt;" style="text;strokeColor=none;align=center;fillColor=none;html=1;verticalAlign=middle;whiteSpace=wrap;rounded=0;direction=south;rotation=-90;container=0;" vertex="1" parent="Z0wh2rYoc3VQ_gcaiNQV-62">
          <mxGeometry x="79.28999999999996" y="38.29000000000002" width="17.43" height="42" as="geometry" />
        </mxCell>
        <mxCell id="Z0wh2rYoc3VQ_gcaiNQV-47" value="" style="endArrow=none;html=1;rounded=0;fontSize=23;" edge="1" parent="Z0wh2rYoc3VQ_gcaiNQV-62">
          <mxGeometry width="50" height="50" relative="1" as="geometry">
            <mxPoint y="102" as="sourcePoint" />
            <mxPoint x="37.71428571428578" y="102" as="targetPoint" />
          </mxGeometry>
        </mxCell>
        <mxCell id="JPiBVwmPEjv8jOsTFSt1-2" value="" style="group" vertex="1" connectable="0" parent="1">
          <mxGeometry x="240" y="300" width="170" height="220" as="geometry" />
        </mxCell>
        <mxCell id="Z0wh2rYoc3VQ_gcaiNQV-61" value="" style="rounded=0;whiteSpace=wrap;html=1;fontSize=15;container=0;" vertex="1" parent="JPiBVwmPEjv8jOsTFSt1-2">
          <mxGeometry x="10" y="50" width="120" height="170" as="geometry" />
        </mxCell>
        <mxCell id="Z0wh2rYoc3VQ_gcaiNQV-64" value="" style="endArrow=none;html=1;rounded=0;fontSize=15;" edge="1" parent="JPiBVwmPEjv8jOsTFSt1-2">
          <mxGeometry width="50" height="50" relative="1" as="geometry">
            <mxPoint x="30" y="30" as="sourcePoint" />
            <mxPoint x="30" y="50" as="targetPoint" />
          </mxGeometry>
        </mxCell>
        <mxCell id="Z0wh2rYoc3VQ_gcaiNQV-71" value="CLK" style="text;strokeColor=none;align=center;fillColor=none;html=1;verticalAlign=middle;whiteSpace=wrap;rounded=0;fontSize=15;container=0;" vertex="1" parent="JPiBVwmPEjv8jOsTFSt1-2">
          <mxGeometry width="60" height="30" as="geometry" />
        </mxCell>
        <mxCell id="Z0wh2rYoc3VQ_gcaiNQV-73" value="Register&lt;br&gt;File" style="text;strokeColor=none;align=center;fillColor=none;html=1;verticalAlign=middle;whiteSpace=wrap;rounded=0;fontSize=15;container=0;" vertex="1" parent="JPiBVwmPEjv8jOsTFSt1-2">
          <mxGeometry x="40" y="140" width="60" height="30" as="geometry" />
        </mxCell>
        <mxCell id="Z0wh2rYoc3VQ_gcaiNQV-74" value="" style="edgeStyle=none;orthogonalLoop=1;jettySize=auto;html=1;rounded=0;fontSize=15;startArrow=none;startFill=0;endArrow=none;endFill=0;" edge="1" parent="JPiBVwmPEjv8jOsTFSt1-2">
          <mxGeometry width="80" relative="1" as="geometry">
            <mxPoint x="130" y="75" as="sourcePoint" />
            <mxPoint x="170" y="75" as="targetPoint" />
            <Array as="points" />
          </mxGeometry>
        </mxCell>
        <mxCell id="Z0wh2rYoc3VQ_gcaiNQV-75" value="" style="edgeStyle=none;orthogonalLoop=1;jettySize=auto;html=1;rounded=0;fontSize=15;startArrow=none;startFill=0;endArrow=none;endFill=0;" edge="1" parent="JPiBVwmPEjv8jOsTFSt1-2">
          <mxGeometry width="80" relative="1" as="geometry">
            <mxPoint x="130" y="110" as="sourcePoint" />
            <mxPoint x="170" y="110" as="targetPoint" />
            <Array as="points" />
          </mxGeometry>
        </mxCell>
        <mxCell id="Z0wh2rYoc3VQ_gcaiNQV-76" value="RD1" style="text;strokeColor=none;align=center;fillColor=none;html=1;verticalAlign=middle;whiteSpace=wrap;rounded=0;fontSize=15;container=0;" vertex="1" parent="JPiBVwmPEjv8jOsTFSt1-2">
          <mxGeometry x="80" y="60" width="60" height="30" as="geometry" />
        </mxCell>
        <mxCell id="Z0wh2rYoc3VQ_gcaiNQV-77" value="RD2" style="text;strokeColor=none;align=center;fillColor=none;html=1;verticalAlign=middle;whiteSpace=wrap;rounded=0;fontSize=15;container=0;" vertex="1" parent="JPiBVwmPEjv8jOsTFSt1-2">
          <mxGeometry x="80" y="100" width="60" height="30" as="geometry" />
        </mxCell>
        <mxCell id="JPiBVwmPEjv8jOsTFSt1-1" value="" style="edgeStyle=none;orthogonalLoop=1;jettySize=auto;html=1;rounded=0;fontSize=15;startArrow=none;startFill=0;endArrow=none;endFill=0;" edge="1" parent="JPiBVwmPEjv8jOsTFSt1-2">
          <mxGeometry width="80" relative="1" as="geometry">
            <mxPoint x="20" y="50" as="sourcePoint" />
            <mxPoint x="40" y="50" as="targetPoint" />
            <Array as="points">
              <mxPoint x="30" y="60" />
            </Array>
          </mxGeometry>
        </mxCell>
        <mxCell id="JPiBVwmPEjv8jOsTFSt1-4" value="" style="rounded=1;whiteSpace=wrap;html=1;fontSize=15;fillColor=default;" vertex="1" parent="1">
          <mxGeometry x="140" y="90" width="60" height="190" as="geometry" />
        </mxCell>
        <mxCell id="JPiBVwmPEjv8jOsTFSt1-5" value="" style="edgeStyle=none;orthogonalLoop=1;jettySize=auto;html=1;rounded=0;fontSize=15;startArrow=none;startFill=0;endArrow=none;endFill=0;exitX=0.25;exitY=0;exitDx=0;exitDy=0;entryX=0.75;entryY=0;entryDx=0;entryDy=0;" edge="1" parent="1" source="JPiBVwmPEjv8jOsTFSt1-4" target="JPiBVwmPEjv8jOsTFSt1-4">
          <mxGeometry width="80" relative="1" as="geometry">
            <mxPoint x="150" y="90" as="sourcePoint" />
            <mxPoint x="190" y="90" as="targetPoint" />
            <Array as="points">
              <mxPoint x="170" y="100" />
            </Array>
          </mxGeometry>
        </mxCell>
        <mxCell id="JPiBVwmPEjv8jOsTFSt1-6" value="" style="edgeStyle=none;orthogonalLoop=1;jettySize=auto;html=1;rounded=0;fontSize=15;startArrow=none;startFill=0;endArrow=none;endFill=0;" edge="1" parent="1">
          <mxGeometry width="80" relative="1" as="geometry">
            <mxPoint x="170" y="70" as="sourcePoint" />
            <mxPoint x="169.81" y="90" as="targetPoint" />
            <Array as="points" />
          </mxGeometry>
        </mxCell>
        <mxCell id="JPiBVwmPEjv8jOsTFSt1-7" value="CLK" style="text;strokeColor=none;align=center;fillColor=none;html=1;verticalAlign=middle;whiteSpace=wrap;rounded=0;fontSize=15;" vertex="1" parent="1">
          <mxGeometry x="140" y="40" width="60" height="30" as="geometry" />
        </mxCell>
      </root>
    </mxGraphModel>
  </diagram>
  <diagram id="R90BCbSjWwIdNZHCNCVx" name="Page-2">
    <mxGraphModel dx="9540" dy="7480" grid="1" gridSize="10" guides="0" tooltips="0" connect="1" arrows="1" fold="1" page="0" pageScale="1" pageWidth="827" pageHeight="1169" math="0" shadow="0">
      <root>
        <mxCell id="0" />
        <mxCell id="1" parent="0" />
      </root>
    </mxGraphModel>
  </diagram>
</mxfile>
